<svg xmlns="http://www.w3.org/2000/svg" viewBox="-60 -1044 5477 1396" role="img" aria-label="Liversedge">
  <title>Liversedge</title>
  <g transform="scale(1 -1)">
      <path d="M69 0V700H190V109H518V0Z" transform="translate(0.0 0)" fill="var(--logo-fg, #e8ebf0)"/>
      <path d="M73 0V494H188V0ZM130 557Q99 557 76.5 577.5Q54 598 54 632Q54 666 76.5 686.5Q99 707 130 707Q163 707 184.5 686.5Q206 666 206 632Q206 598 184.5 577.5Q163 557 130 557Z" transform="translate(523.0 0)" fill="var(--logo-fg, #e8ebf0)"/>
      <path d="M182 0 20 494H142L264 84H281L404 494H526L364 0Z" transform="translate(764.0 0)" fill="var(--logo-fg, #e8ebf0)"/>
      <path d="M299 -14Q225 -14 168.5 17.5Q112 49 80.5 106.5Q49 164 49 241V253Q49 331 80.0 388.0Q111 445 167.0 476.5Q223 508 296 508Q368 508 422.0 476.5Q476 445 506.0 388.0Q536 331 536 255V214H165Q167 156 206.0 121.0Q245 86 302 86Q358 86 385.0 110.5Q412 135 426 166L521 117Q507 90 480.5 59.5Q454 29 410.0 7.5Q366 -14 299 -14ZM166 301H419Q415 350 381.5 379.0Q348 408 295 408Q240 408 207.0 379.0Q174 350 166 301Z" transform="translate(1290.0 0)" fill="var(--logo-fg, #e8ebf0)"/>
      <path d="M73 0V494H186V437H203Q214 468 240.0 482.0Q266 496 302 496H362V394H300Q250 394 219.0 367.5Q188 341 188 286V0Z" transform="translate(1851.0 0)" fill="var(--logo-fg, #e8ebf0)"/>
      <path d="M277 -14Q181 -14 119.0 28.0Q57 70 44 151L150 178Q157 140 175.0 118.0Q193 96 219.5 87.0Q246 78 277 78Q324 78 347.5 95.0Q371 112 371 138Q371 165 348.5 178.0Q326 191 280 200L249 205Q198 215 156.0 232.5Q114 250 88.5 280.5Q63 311 63 358Q63 430 116.5 469.0Q170 508 257 508Q340 508 394.0 471.0Q448 434 464 372L358 340Q350 382 323.0 399.5Q296 417 257 417Q217 417 195.5 403.0Q174 389 174 363Q174 337 196.0 324.0Q218 311 255 305L286 299Q341 289 385.5 273.0Q430 257 456.0 227.0Q482 197 482 146Q482 69 426.5 27.5Q371 -14 277 -14Z" transform="translate(2222.0 0)" fill="var(--logo-fg, #e8ebf0)"/>
      <rect x="2797.0" y="-210" width="130" height="970" rx="12" fill="var(--logo-accent, #4cc2ff)"/>
      <path d="M299 -14Q225 -14 168.5 17.5Q112 49 80.5 106.5Q49 164 49 241V253Q49 331 80.0 388.0Q111 445 167.0 476.5Q223 508 296 508Q368 508 422.0 476.5Q476 445 506.0 388.0Q536 331 536 255V214H165Q167 156 206.0 121.0Q245 86 302 86Q358 86 385.0 110.5Q412 135 426 166L521 117Q507 90 480.5 59.5Q454 29 410.0 7.5Q366 -14 299 -14ZM166 301H419Q415 350 381.5 379.0Q348 408 295 408Q240 408 207.0 379.0Q174 350 166 301Z" transform="translate(2997.0 0)" fill="var(--logo-fg, #e8ebf0)"/>
      <path d="M275 -14Q215 -14 163.0 15.5Q111 45 80.0 102.0Q49 159 49 239V255Q49 335 80.0 392.0Q111 449 162.5 478.5Q214 508 275 508Q321 508 353.0 497.0Q385 486 404.5 469.0Q424 452 435 432H452V700H566V0H454V65H437Q419 35 382.0 10.5Q345 -14 275 -14ZM309 86Q371 86 412.0 126.5Q453 167 453 242V252Q453 328 412.5 368.0Q372 408 309 408Q247 408 205.5 368.0Q164 328 164 252V242Q164 167 205.5 126.5Q247 86 309 86Z" transform="translate(3558.0 0)" fill="var(--logo-fg, #e8ebf0)"/>
      <path d="M49 245V260Q49 338 80.0 393.5Q111 449 163.0 478.5Q215 508 277 508Q347 508 383.5 483.0Q420 458 437 429H454V494H566V-94Q566 -143 538.0 -171.5Q510 -200 462 -200H130V-100H423Q452 -100 452 -70V73H435Q424 56 405.0 38.5Q386 21 355.0 9.0Q324 -3 277 -3Q215 -3 163.0 26.5Q111 56 80.0 111.5Q49 167 49 245ZM309 98Q371 98 412.0 137.5Q453 177 453 248V258Q453 330 412.5 369.0Q372 408 309 408Q247 408 205.5 369.0Q164 330 164 258V248Q164 177 205.5 137.5Q247 98 309 98Z" transform="translate(4177.0 0)" fill="var(--logo-fg, #e8ebf0)"/>
      <path d="M299 -14Q225 -14 168.5 17.5Q112 49 80.5 106.5Q49 164 49 241V253Q49 331 80.0 388.0Q111 445 167.0 476.5Q223 508 296 508Q368 508 422.0 476.5Q476 445 506.0 388.0Q536 331 536 255V214H165Q167 156 206.0 121.0Q245 86 302 86Q358 86 385.0 110.5Q412 135 426 166L521 117Q507 90 480.5 59.5Q454 29 410.0 7.5Q366 -14 299 -14ZM166 301H419Q415 350 381.5 379.0Q348 408 295 408Q240 408 207.0 379.0Q174 350 166 301Z" transform="translate(4796.0 0)" fill="var(--logo-fg, #e8ebf0)"/>
  </g>
</svg>
